<svg width="256" height="288" viewBox="0 0 256 288" fill="none" xmlns="http://www.w3.org/2000/svg">
<path fill-rule="evenodd" clip-rule="evenodd" d="M82.5478 0.41625C63.7581 2.4225 60.5112 6.67355 71.3468 15.0795C85.8438 26.3259 88.8166 28.7467 95.9296 35.0986C104.174 42.461 113.951 53.1321 112.451 53.1321C112.141 53.1321 110.419 52.6923 108.624 52.1547C72.7454 41.4107 37.1919 61.6452 26.2667 99.0275C22.0376 113.498 24.2704 115.575 37.4843 109.468C41.4157 107.65 45.6363 105.755 46.8629 105.255C48.0896 104.755 50.4618 103.766 52.1346 103.057C72.5301 94.4158 92.4747 89.116 114.02 86.6127C126.205 85.1968 127.016 85.5692 125.162 91.7336C124.404 94.2539 120.89 108.346 118.904 116.829C117.98 120.776 117.578 122.697 115.403 133.558C114.199 139.573 112.659 148.934 111.981 154.357C111.647 157.035 111.096 161.325 110.757 163.892C108.828 178.494 107.713 196.036 107.698 211.992C107.687 224.073 108.599 222.782 98.9709 224.337C87.0429 226.262 79.646 227.906 73.0183 230.103C71.6801 230.546 70.0378 231.059 69.3687 231.243C63.0266 232.984 49.8309 238.744 42.2288 243.09C40.6517 243.991 38.7223 245.088 37.9417 245.527C17.2121 257.18 -4.69804 281.619 0.882184 286.864L1.91664 287.837L127.203 287.94C266.588 288.055 254.31 288.308 255.569 285.293C256.408 283.286 256.054 281.643 254.228 279.06C232.986 249.015 192.296 227.437 149.457 223.499C138.493 222.492 139.75 224.222 137.691 207.305C133.266 170.947 133.037 128.667 137.116 101.209C139.043 88.2404 138.432 89.0117 143.621 92.999C162.683 107.647 185.581 133.224 200.087 156.07C204.864 163.594 209.034 162.75 211.839 153.692C220.744 124.936 212.374 96.2877 190.363 80.1858C186.755 77.5467 185.828 76.9953 178.147 72.9191C174.849 71.1693 175.143 70.983 181.188 70.9875C191.834 70.996 211.969 73.5001 222.043 76.0682C223.27 76.3811 226.554 77.2034 229.342 77.896C232.13 78.5885 236.783 79.8548 239.683 80.7104C247.649 83.0607 249.033 83.0972 250.769 81.0021C252.476 78.9431 250.609 73.3682 245.263 64.5562C224.475 30.2941 184.761 21.422 152.603 43.8555C149.503 46.0183 148.805 45.5197 146.808 39.7168C137.458 12.5471 112.41 -2.77184 82.5478 0.41625Z" fill="black"/>
</svg>
